<mxfile host="Electron" agent="Mozilla/5.0 (Windows NT 10.0; Win64; x64) AppleWebKit/537.36 (KHTML, like Gecko) draw.io/27.0.9 Chrome/134.0.6998.205 Electron/35.4.0 Safari/537.36" version="27.0.9" pages="2">
  <diagram name="Page-1" id="FQx0Gf-kRWtIC3uhS5Nb">
    <mxGraphModel dx="4132" dy="3518" grid="1" gridSize="10" guides="1" tooltips="1" connect="1" arrows="1" fold="1" page="1" pageScale="1" pageWidth="850" pageHeight="1100" math="0" shadow="0">
      <root>
        <mxCell id="0" />
        <mxCell id="1" parent="0" />
        <mxCell id="nNsLKt_gQvv5KG4dFncz-5" value="" style="edgeStyle=orthogonalEdgeStyle;rounded=0;orthogonalLoop=1;jettySize=auto;html=1;strokeWidth=3;fontFamily=Times New Roman;fontSize=15;" edge="1" parent="1" source="nNsLKt_gQvv5KG4dFncz-2" target="nNsLKt_gQvv5KG4dFncz-3">
          <mxGeometry relative="1" as="geometry" />
        </mxCell>
        <mxCell id="nNsLKt_gQvv5KG4dFncz-21" value="Emergency vehicle detection=FALSE" style="edgeLabel;html=1;align=center;verticalAlign=middle;resizable=0;points=[];fontFamily=Times New Roman;fontSize=15;" vertex="1" connectable="0" parent="nNsLKt_gQvv5KG4dFncz-5">
          <mxGeometry x="0.0033" y="-1" relative="1" as="geometry">
            <mxPoint as="offset" />
          </mxGeometry>
        </mxCell>
        <mxCell id="nNsLKt_gQvv5KG4dFncz-22" value="t=10sec" style="edgeLabel;html=1;align=center;verticalAlign=middle;resizable=0;points=[];fontFamily=Times New Roman;fontSize=15;" vertex="1" connectable="0" parent="nNsLKt_gQvv5KG4dFncz-5">
          <mxGeometry x="0.65" y="1" relative="1" as="geometry">
            <mxPoint as="offset" />
          </mxGeometry>
        </mxCell>
        <mxCell id="nNsLKt_gQvv5KG4dFncz-2" value="N&amp;amp;S Green" style="rounded=1;whiteSpace=wrap;html=1;strokeWidth=3;fontFamily=Times New Roman;fontSize=13;" vertex="1" parent="1">
          <mxGeometry x="560" y="-630" width="120" height="60" as="geometry" />
        </mxCell>
        <mxCell id="nNsLKt_gQvv5KG4dFncz-3" value="N&amp;amp;S Yellow" style="rounded=1;whiteSpace=wrap;html=1;strokeWidth=3;fontFamily=Times New Roman;fontSize=15;" vertex="1" parent="1">
          <mxGeometry x="1100" y="-630" width="120" height="60" as="geometry" />
        </mxCell>
        <mxCell id="nNsLKt_gQvv5KG4dFncz-6" value="" style="shape=waypoint;sketch=0;fillStyle=solid;size=6;pointerEvents=1;points=[];fillColor=none;resizable=0;rotatable=0;perimeter=centerPerimeter;snapToPoint=1;strokeWidth=12;" vertex="1" parent="1">
          <mxGeometry x="400" y="-460" width="20" height="20" as="geometry" />
        </mxCell>
        <mxCell id="nNsLKt_gQvv5KG4dFncz-11" value="" style="edgeStyle=orthogonalEdgeStyle;rounded=0;orthogonalLoop=1;jettySize=auto;html=1;strokeWidth=3;fontFamily=Times New Roman;fontSize=15;entryX=0;entryY=0.5;entryDx=0;entryDy=0;" edge="1" parent="1" source="nNsLKt_gQvv5KG4dFncz-8" target="nNsLKt_gQvv5KG4dFncz-39">
          <mxGeometry relative="1" as="geometry">
            <mxPoint x="1120" y="-239" as="targetPoint" />
          </mxGeometry>
        </mxCell>
        <mxCell id="nNsLKt_gQvv5KG4dFncz-20" value="Emergency vehicle detection=FALSE&lt;div&gt;&lt;br&gt;&lt;/div&gt;" style="edgeLabel;html=1;align=center;verticalAlign=middle;resizable=0;points=[];fontFamily=Times New Roman;fontSize=15;" vertex="1" connectable="0" parent="nNsLKt_gQvv5KG4dFncz-11">
          <mxGeometry y="2" relative="1" as="geometry">
            <mxPoint x="10" as="offset" />
          </mxGeometry>
        </mxCell>
        <mxCell id="nNsLKt_gQvv5KG4dFncz-24" value="t=12sec" style="edgeLabel;html=1;align=center;verticalAlign=middle;resizable=0;points=[];fontFamily=Times New Roman;fontSize=15;" vertex="1" connectable="0" parent="nNsLKt_gQvv5KG4dFncz-11">
          <mxGeometry x="0.6983" relative="1" as="geometry">
            <mxPoint as="offset" />
          </mxGeometry>
        </mxCell>
        <mxCell id="nNsLKt_gQvv5KG4dFncz-8" value="E&amp;amp;W RED" style="rounded=1;whiteSpace=wrap;html=1;strokeWidth=3;fontFamily=Times New Roman;fontSize=13;" vertex="1" parent="1">
          <mxGeometry x="570" y="-269" width="120" height="60" as="geometry" />
        </mxCell>
        <mxCell id="nNsLKt_gQvv5KG4dFncz-13" value="" style="endArrow=classic;html=1;rounded=0;exitX=0.479;exitY=1.047;exitDx=0;exitDy=0;exitPerimeter=0;entryX=0;entryY=0.5;entryDx=0;entryDy=0;strokeWidth=3;fontFamily=Times New Roman;fontSize=13;" edge="1" parent="1" source="nNsLKt_gQvv5KG4dFncz-6" target="nNsLKt_gQvv5KG4dFncz-8">
          <mxGeometry width="50" height="50" relative="1" as="geometry">
            <mxPoint x="410" y="-520" as="sourcePoint" />
            <mxPoint x="540" y="-440" as="targetPoint" />
            <Array as="points">
              <mxPoint x="410" y="-239" />
            </Array>
          </mxGeometry>
        </mxCell>
        <mxCell id="nNsLKt_gQvv5KG4dFncz-14" value="&#xa;&lt;span style=&quot;color: rgb(0, 0, 0); font-family: &amp;quot;Times New Roman&amp;quot;; font-size: 15px; font-style: normal; font-variant-ligatures: normal; font-variant-caps: normal; font-weight: 400; letter-spacing: normal; orphans: 2; text-align: center; text-indent: 0px; text-transform: none; widows: 2; word-spacing: 0px; -webkit-text-stroke-width: 0px; white-space: nowrap; background-color: rgb(255, 255, 255); text-decoration-thickness: initial; text-decoration-style: initial; text-decoration-color: initial; display: inline !important; float: none;&quot;&gt;E&amp;amp;W PTL state=Don&#39;t Walk&lt;/span&gt;&#xa;&#xa;" style="endArrow=classic;html=1;rounded=0;strokeWidth=3;entryX=0;entryY=0.5;entryDx=0;entryDy=0;fontFamily=Times New Roman;fontSize=13;exitX=0.95;exitY=0.224;exitDx=0;exitDy=0;exitPerimeter=0;" edge="1" parent="1" source="nNsLKt_gQvv5KG4dFncz-6" target="nNsLKt_gQvv5KG4dFncz-2">
          <mxGeometry x="-0.4" width="50" height="50" relative="1" as="geometry">
            <mxPoint x="410" y="-520" as="sourcePoint" />
            <mxPoint x="530" y="-600" as="targetPoint" />
            <Array as="points">
              <mxPoint x="410" y="-600" />
            </Array>
            <mxPoint y="1" as="offset" />
          </mxGeometry>
        </mxCell>
        <mxCell id="nNsLKt_gQvv5KG4dFncz-25" value="" style="endArrow=classic;html=1;rounded=0;exitX=0.5;exitY=1;exitDx=0;exitDy=0;entryX=0.5;entryY=1;entryDx=0;entryDy=0;fontFamily=Times New Roman;fontSize=13;strokeWidth=3;" edge="1" parent="1" source="nNsLKt_gQvv5KG4dFncz-8" target="nNsLKt_gQvv5KG4dFncz-39">
          <mxGeometry width="50" height="50" relative="1" as="geometry">
            <mxPoint x="760" y="-29" as="sourcePoint" />
            <mxPoint x="1180" y="-209" as="targetPoint" />
            <Array as="points">
              <mxPoint x="630" y="-79" />
              <mxPoint x="1630" y="-70" />
            </Array>
          </mxGeometry>
        </mxCell>
        <mxCell id="nNsLKt_gQvv5KG4dFncz-26" value="Emergency vehicle detection=TRUE" style="edgeLabel;html=1;align=center;verticalAlign=middle;resizable=0;points=[];fontFamily=Times New Roman;fontSize=15;" vertex="1" connectable="0" parent="nNsLKt_gQvv5KG4dFncz-25">
          <mxGeometry x="-0.0021" y="-2" relative="1" as="geometry">
            <mxPoint as="offset" />
          </mxGeometry>
        </mxCell>
        <mxCell id="nNsLKt_gQvv5KG4dFncz-28" value="" style="endArrow=classic;html=1;rounded=0;exitX=0.5;exitY=0;exitDx=0;exitDy=0;entryX=0.583;entryY=-0.067;entryDx=0;entryDy=0;entryPerimeter=0;fontFamily=Times New Roman;fontSize=13;strokeWidth=3;" edge="1" parent="1" source="nNsLKt_gQvv5KG4dFncz-2" target="nNsLKt_gQvv5KG4dFncz-3">
          <mxGeometry width="50" height="50" relative="1" as="geometry">
            <mxPoint x="640" y="-680" as="sourcePoint" />
            <mxPoint x="1350" y="-680" as="targetPoint" />
            <Array as="points">
              <mxPoint x="620" y="-770" />
              <mxPoint x="1170" y="-770" />
            </Array>
          </mxGeometry>
        </mxCell>
        <mxCell id="nNsLKt_gQvv5KG4dFncz-29" value="Emergency vehicle detection=TRUE" style="edgeLabel;html=1;align=center;verticalAlign=middle;resizable=0;points=[];fontFamily=Times New Roman;fontSize=15;" vertex="1" connectable="0" parent="nNsLKt_gQvv5KG4dFncz-28">
          <mxGeometry x="-0.0021" y="-2" relative="1" as="geometry">
            <mxPoint as="offset" />
          </mxGeometry>
        </mxCell>
        <mxCell id="nNsLKt_gQvv5KG4dFncz-34" value="N&amp;amp;S Red" style="rounded=1;whiteSpace=wrap;html=1;strokeWidth=3;fontFamily=Times New Roman;fontSize=15;" vertex="1" parent="1">
          <mxGeometry x="2080" y="-630" width="120" height="60" as="geometry" />
        </mxCell>
        <mxCell id="nNsLKt_gQvv5KG4dFncz-36" value="" style="edgeStyle=orthogonalEdgeStyle;rounded=0;orthogonalLoop=1;jettySize=auto;html=1;strokeWidth=3;fontFamily=Times New Roman;fontSize=15;entryX=0;entryY=0.5;entryDx=0;entryDy=0;" edge="1" parent="1" source="nNsLKt_gQvv5KG4dFncz-39" target="nNsLKt_gQvv5KG4dFncz-48">
          <mxGeometry relative="1" as="geometry">
            <mxPoint x="2120" y="-239" as="targetPoint" />
          </mxGeometry>
        </mxCell>
        <mxCell id="nNsLKt_gQvv5KG4dFncz-37" value="Emergency vehicle detection=FALSE" style="edgeLabel;html=1;align=center;verticalAlign=middle;resizable=0;points=[];fontFamily=Times New Roman;fontSize=15;" vertex="1" connectable="0" parent="nNsLKt_gQvv5KG4dFncz-36">
          <mxGeometry y="2" relative="1" as="geometry">
            <mxPoint as="offset" />
          </mxGeometry>
        </mxCell>
        <mxCell id="nNsLKt_gQvv5KG4dFncz-38" value="t=1sec" style="edgeLabel;html=1;align=center;verticalAlign=middle;resizable=0;points=[];fontFamily=Times New Roman;fontSize=15;" vertex="1" connectable="0" parent="nNsLKt_gQvv5KG4dFncz-36">
          <mxGeometry x="0.6983" relative="1" as="geometry">
            <mxPoint as="offset" />
          </mxGeometry>
        </mxCell>
        <mxCell id="nNsLKt_gQvv5KG4dFncz-39" value="E&amp;amp;W Yellow" style="rounded=1;whiteSpace=wrap;html=1;strokeWidth=3;fontFamily=Times New Roman;fontSize=15;" vertex="1" parent="1">
          <mxGeometry x="1570" y="-269" width="120" height="60" as="geometry" />
        </mxCell>
        <mxCell id="nNsLKt_gQvv5KG4dFncz-40" value="&#xa;&lt;font style=&quot;forced-color-adjust: none; color: rgb(0, 0, 0); font-style: normal; font-variant-ligatures: normal; font-variant-caps: normal; font-weight: 400; letter-spacing: normal; orphans: 2; text-align: center; text-indent: 0px; text-transform: none; widows: 2; word-spacing: 0px; -webkit-text-stroke-width: 0px; white-space: nowrap; text-decoration-thickness: initial; text-decoration-style: initial; text-decoration-color: initial; font-size: 15px;&quot; face=&quot;Times New Roman&quot;&gt;Stay in yellow until&lt;/font&gt;&lt;div style=&quot;forced-color-adjust: none; color: rgb(0, 0, 0); font-family: Helvetica; font-size: 11px; font-style: normal; font-variant-ligatures: normal; font-variant-caps: normal; font-weight: 400; letter-spacing: normal; orphans: 2; text-align: center; text-indent: 0px; text-transform: none; widows: 2; word-spacing: 0px; -webkit-text-stroke-width: 0px; white-space: nowrap; text-decoration-thickness: initial; text-decoration-style: initial; text-decoration-color: initial;&quot;&gt;&lt;font style=&quot;forced-color-adjust: none; font-size: 15px;&quot; face=&quot;Times New Roman&quot;&gt;Emergency vehicle detection=False&lt;/font&gt;&lt;/div&gt;&#xa;&#xa;" style="endArrow=classic;html=1;rounded=0;fontFamily=Times New Roman;fontSize=15;strokeWidth=3;entryX=0;entryY=0.25;entryDx=0;entryDy=0;" edge="1" parent="1" target="nNsLKt_gQvv5KG4dFncz-39">
          <mxGeometry x="0.4184" y="-50" width="50" height="50" relative="1" as="geometry">
            <mxPoint x="1630" y="-270" as="sourcePoint" />
            <mxPoint x="1540" y="-250" as="targetPoint" />
            <Array as="points">
              <mxPoint x="1630" y="-520" />
              <mxPoint x="1550" y="-520" />
              <mxPoint x="1550" y="-250" />
            </Array>
            <mxPoint as="offset" />
          </mxGeometry>
        </mxCell>
        <mxCell id="nNsLKt_gQvv5KG4dFncz-41" value="Emergency vehicle detection=TRUE" style="edgeLabel;html=1;align=center;verticalAlign=middle;resizable=0;points=[];fontFamily=Times New Roman;fontSize=15;" vertex="1" connectable="0" parent="nNsLKt_gQvv5KG4dFncz-40">
          <mxGeometry x="-0.0021" y="-2" relative="1" as="geometry">
            <mxPoint x="99" y="52" as="offset" />
          </mxGeometry>
        </mxCell>
        <mxCell id="nNsLKt_gQvv5KG4dFncz-43" value="" style="endArrow=classic;html=1;rounded=0;exitX=0.5;exitY=0;exitDx=0;exitDy=0;entryX=0.629;entryY=-0.017;entryDx=0;entryDy=0;entryPerimeter=0;fontFamily=Times New Roman;fontSize=15;strokeWidth=3;" edge="1" parent="1" source="nNsLKt_gQvv5KG4dFncz-34" target="nNsLKt_gQvv5KG4dFncz-56">
          <mxGeometry width="50" height="50" relative="1" as="geometry">
            <mxPoint x="1600" y="-680" as="sourcePoint" />
            <mxPoint x="2310" y="-680" as="targetPoint" />
            <Array as="points">
              <mxPoint x="2140" y="-770" />
              <mxPoint x="2680" y="-770" />
            </Array>
          </mxGeometry>
        </mxCell>
        <mxCell id="nNsLKt_gQvv5KG4dFncz-44" value="Emergency vehicle detection=TRUE" style="edgeLabel;html=1;align=center;verticalAlign=middle;resizable=0;points=[];fontFamily=Times New Roman;fontSize=15;" vertex="1" connectable="0" parent="nNsLKt_gQvv5KG4dFncz-43">
          <mxGeometry x="-0.0021" y="-2" relative="1" as="geometry">
            <mxPoint as="offset" />
          </mxGeometry>
        </mxCell>
        <mxCell id="nNsLKt_gQvv5KG4dFncz-47" value="" style="endArrow=classic;html=1;rounded=0;exitX=1;exitY=0.5;exitDx=0;exitDy=0;entryX=0;entryY=0.5;entryDx=0;entryDy=0;fontFamily=Times New Roman;fontSize=15;strokeWidth=3;" edge="1" parent="1" source="nNsLKt_gQvv5KG4dFncz-3" target="nNsLKt_gQvv5KG4dFncz-34">
          <mxGeometry width="50" height="50" relative="1" as="geometry">
            <mxPoint x="750" y="-370" as="sourcePoint" />
            <mxPoint x="800" y="-420" as="targetPoint" />
          </mxGeometry>
        </mxCell>
        <mxCell id="nNsLKt_gQvv5KG4dFncz-49" value="Emergency vehicle detection=FALSE" style="edgeLabel;html=1;align=center;verticalAlign=middle;resizable=0;points=[];fontSize=15;fontFamily=Times New Roman;" vertex="1" connectable="0" parent="nNsLKt_gQvv5KG4dFncz-47">
          <mxGeometry x="-0.2176" y="-2" relative="1" as="geometry">
            <mxPoint as="offset" />
          </mxGeometry>
        </mxCell>
        <mxCell id="nNsLKt_gQvv5KG4dFncz-51" value="t=3sec" style="edgeLabel;html=1;align=center;verticalAlign=middle;resizable=0;points=[];fontSize=15;fontFamily=Times New Roman;" vertex="1" connectable="0" parent="nNsLKt_gQvv5KG4dFncz-47">
          <mxGeometry x="0.6235" relative="1" as="geometry">
            <mxPoint as="offset" />
          </mxGeometry>
        </mxCell>
        <mxCell id="nNsLKt_gQvv5KG4dFncz-48" value="E&amp;amp;W Green" style="rounded=1;whiteSpace=wrap;html=1;strokeWidth=3;fontFamily=Times New Roman;fontSize=15;" vertex="1" parent="1">
          <mxGeometry x="2080" y="-269" width="120" height="60" as="geometry" />
        </mxCell>
        <mxCell id="nNsLKt_gQvv5KG4dFncz-53" value="" style="endArrow=classic;html=1;rounded=0;exitX=0.5;exitY=1;exitDx=0;exitDy=0;entryX=0.5;entryY=1;entryDx=0;entryDy=0;fontFamily=Times New Roman;fontSize=15;strokeWidth=3;" edge="1" parent="1" source="nNsLKt_gQvv5KG4dFncz-48" target="nNsLKt_gQvv5KG4dFncz-57">
          <mxGeometry width="50" height="50" relative="1" as="geometry">
            <mxPoint x="1880" y="-119" as="sourcePoint" />
            <mxPoint x="871" y="-122" as="targetPoint" />
            <Array as="points">
              <mxPoint x="2140" y="-69" />
              <mxPoint x="2682" y="-79" />
            </Array>
          </mxGeometry>
        </mxCell>
        <mxCell id="nNsLKt_gQvv5KG4dFncz-54" value="Emergency vehicle detection=TRUE" style="edgeLabel;html=1;align=center;verticalAlign=middle;resizable=0;points=[];fontFamily=Times New Roman;fontSize=15;" vertex="1" connectable="0" parent="nNsLKt_gQvv5KG4dFncz-53">
          <mxGeometry x="-0.0021" y="-2" relative="1" as="geometry">
            <mxPoint as="offset" />
          </mxGeometry>
        </mxCell>
        <mxCell id="nNsLKt_gQvv5KG4dFncz-56" value="N&amp;amp;S Yellow" style="rounded=1;whiteSpace=wrap;html=1;strokeWidth=3;fontFamily=Times New Roman;fontSize=15;" vertex="1" parent="1">
          <mxGeometry x="2602.49" y="-630" width="120" height="60" as="geometry" />
        </mxCell>
        <mxCell id="nNsLKt_gQvv5KG4dFncz-57" value="E&amp;amp;W Yellow" style="rounded=1;whiteSpace=wrap;html=1;strokeWidth=3;fontFamily=Times New Roman;fontSize=15;" vertex="1" parent="1">
          <mxGeometry x="2622.49" y="-269" width="120" height="60" as="geometry" />
        </mxCell>
        <mxCell id="nNsLKt_gQvv5KG4dFncz-81" value="" style="edgeStyle=orthogonalEdgeStyle;rounded=0;orthogonalLoop=1;jettySize=auto;html=1;strokeWidth=3;fontFamily=Times New Roman;fontSize=15;entryX=0;entryY=0.5;entryDx=0;entryDy=0;" edge="1" parent="1" target="nNsLKt_gQvv5KG4dFncz-56">
          <mxGeometry relative="1" as="geometry">
            <mxPoint x="2200" y="-600.5" as="sourcePoint" />
            <mxPoint x="2620" y="-600.5" as="targetPoint" />
          </mxGeometry>
        </mxCell>
        <mxCell id="nNsLKt_gQvv5KG4dFncz-82" value="Emergency vehicle detection=FALSE" style="edgeLabel;html=1;align=center;verticalAlign=middle;resizable=0;points=[];fontFamily=Times New Roman;fontSize=15;" vertex="1" connectable="0" parent="nNsLKt_gQvv5KG4dFncz-81">
          <mxGeometry x="0.0033" y="-1" relative="1" as="geometry">
            <mxPoint as="offset" />
          </mxGeometry>
        </mxCell>
        <mxCell id="nNsLKt_gQvv5KG4dFncz-83" value="t=11sec" style="edgeLabel;html=1;align=center;verticalAlign=middle;resizable=0;points=[];fontFamily=Times New Roman;fontSize=15;" vertex="1" connectable="0" parent="nNsLKt_gQvv5KG4dFncz-81">
          <mxGeometry x="0.65" y="1" relative="1" as="geometry">
            <mxPoint as="offset" />
          </mxGeometry>
        </mxCell>
        <mxCell id="nNsLKt_gQvv5KG4dFncz-84" value="" style="edgeStyle=orthogonalEdgeStyle;rounded=0;orthogonalLoop=1;jettySize=auto;html=1;strokeWidth=3;fontFamily=Times New Roman;fontSize=15;entryX=0;entryY=0.5;entryDx=0;entryDy=0;" edge="1" parent="1" target="nNsLKt_gQvv5KG4dFncz-57">
          <mxGeometry relative="1" as="geometry">
            <mxPoint x="2200" y="-239" as="sourcePoint" />
            <mxPoint x="2602" y="-238.5" as="targetPoint" />
          </mxGeometry>
        </mxCell>
        <mxCell id="nNsLKt_gQvv5KG4dFncz-85" value="Emergency vehicle detection=FALSE" style="edgeLabel;html=1;align=center;verticalAlign=middle;resizable=0;points=[];fontFamily=Times New Roman;fontSize=15;" vertex="1" connectable="0" parent="nNsLKt_gQvv5KG4dFncz-84">
          <mxGeometry x="0.0033" y="-1" relative="1" as="geometry">
            <mxPoint as="offset" />
          </mxGeometry>
        </mxCell>
        <mxCell id="nNsLKt_gQvv5KG4dFncz-86" value="t=10sec" style="edgeLabel;html=1;align=center;verticalAlign=middle;resizable=0;points=[];fontFamily=Times New Roman;fontSize=15;" vertex="1" connectable="0" parent="nNsLKt_gQvv5KG4dFncz-84">
          <mxGeometry x="0.65" y="1" relative="1" as="geometry">
            <mxPoint as="offset" />
          </mxGeometry>
        </mxCell>
        <mxCell id="nNsLKt_gQvv5KG4dFncz-91" value="" style="endArrow=classic;html=1;rounded=0;exitX=1;exitY=0.5;exitDx=0;exitDy=0;fontFamily=Times New Roman;fontSize=15;strokeWidth=3;entryX=0.5;entryY=0;entryDx=0;entryDy=0;" edge="1" parent="1" source="nNsLKt_gQvv5KG4dFncz-56" target="nNsLKt_gQvv5KG4dFncz-2">
          <mxGeometry width="50" height="50" relative="1" as="geometry">
            <mxPoint x="2740" y="-600.5899999999999" as="sourcePoint" />
            <mxPoint x="1400" y="-830" as="targetPoint" />
            <Array as="points">
              <mxPoint x="2810" y="-601" />
              <mxPoint x="2810" y="-810" />
              <mxPoint x="620" y="-820" />
            </Array>
          </mxGeometry>
        </mxCell>
        <mxCell id="nNsLKt_gQvv5KG4dFncz-92" value="Emergency vehicle detection=FALSE" style="edgeLabel;html=1;align=center;verticalAlign=middle;resizable=0;points=[];fontSize=15;fontFamily=Times New Roman;" vertex="1" connectable="0" parent="nNsLKt_gQvv5KG4dFncz-91">
          <mxGeometry x="-0.3273" y="-1" relative="1" as="geometry">
            <mxPoint x="-407" y="-6" as="offset" />
          </mxGeometry>
        </mxCell>
        <mxCell id="nNsLKt_gQvv5KG4dFncz-93" value="t=2sec" style="edgeLabel;html=1;align=center;verticalAlign=middle;resizable=0;points=[];fontSize=15;fontFamily=Times New Roman;" vertex="1" connectable="0" parent="nNsLKt_gQvv5KG4dFncz-91">
          <mxGeometry x="0.6545" y="-2" relative="1" as="geometry">
            <mxPoint as="offset" />
          </mxGeometry>
        </mxCell>
        <mxCell id="nNsLKt_gQvv5KG4dFncz-94" value="" style="endArrow=classic;html=1;rounded=0;exitX=1;exitY=0.5;exitDx=0;exitDy=0;fontFamily=Times New Roman;fontSize=13;strokeWidth=3;entryX=0.5;entryY=1;entryDx=0;entryDy=0;" edge="1" parent="1" source="nNsLKt_gQvv5KG4dFncz-57" target="nNsLKt_gQvv5KG4dFncz-8">
          <mxGeometry width="50" height="50" relative="1" as="geometry">
            <mxPoint x="2420" y="131" as="sourcePoint" />
            <mxPoint x="650" y="-169" as="targetPoint" />
            <Array as="points">
              <mxPoint x="2870" y="-239" />
              <mxPoint x="2870" y="101" />
              <mxPoint x="630" y="101" />
            </Array>
          </mxGeometry>
        </mxCell>
        <mxCell id="nNsLKt_gQvv5KG4dFncz-95" value="&lt;span&gt;Emergency vehicle detection=FALSE&lt;/span&gt;" style="edgeLabel;html=1;align=center;verticalAlign=middle;resizable=0;points=[];fontSize=15;fontFamily=Times New Roman;" vertex="1" connectable="0" parent="nNsLKt_gQvv5KG4dFncz-94">
          <mxGeometry x="-0.3273" y="-1" relative="1" as="geometry">
            <mxPoint x="-472" as="offset" />
          </mxGeometry>
        </mxCell>
        <mxCell id="nNsLKt_gQvv5KG4dFncz-96" value="t=2sec" style="edgeLabel;html=1;align=center;verticalAlign=middle;resizable=0;points=[];fontSize=15;fontFamily=Times New Roman;" vertex="1" connectable="0" parent="nNsLKt_gQvv5KG4dFncz-94">
          <mxGeometry x="0.6545" y="-2" relative="1" as="geometry">
            <mxPoint as="offset" />
          </mxGeometry>
        </mxCell>
        <mxCell id="nNsLKt_gQvv5KG4dFncz-97" value="" style="endArrow=classic;html=1;rounded=0;exitX=1;exitY=0.5;exitDx=0;exitDy=0;entryX=0.5;entryY=1;entryDx=0;entryDy=0;fontFamily=Times New Roman;fontSize=13;strokeWidth=3;" edge="1" parent="1" source="nNsLKt_gQvv5KG4dFncz-3" target="nNsLKt_gQvv5KG4dFncz-3">
          <mxGeometry width="50" height="50" relative="1" as="geometry">
            <mxPoint x="1430" y="-680" as="sourcePoint" />
            <mxPoint x="1980" y="-684" as="targetPoint" />
            <Array as="points">
              <mxPoint x="1360" y="-600" />
              <mxPoint x="1360" y="-490" />
              <mxPoint x="1160" y="-490" />
            </Array>
          </mxGeometry>
        </mxCell>
        <mxCell id="nNsLKt_gQvv5KG4dFncz-98" value="Emergency vehicle detection=TRUE" style="edgeLabel;html=1;align=center;verticalAlign=middle;resizable=0;points=[];fontFamily=Times New Roman;fontSize=15;" vertex="1" connectable="0" parent="nNsLKt_gQvv5KG4dFncz-97">
          <mxGeometry x="-0.0021" y="-2" relative="1" as="geometry">
            <mxPoint x="30" y="-59" as="offset" />
          </mxGeometry>
        </mxCell>
        <mxCell id="nNsLKt_gQvv5KG4dFncz-100" value="&lt;font style=&quot;font-size: 15px;&quot; face=&quot;Times New Roman&quot;&gt;Stay in yellow until&lt;/font&gt;&lt;div&gt;&lt;font style=&quot;font-size: 15px;&quot; face=&quot;Times New Roman&quot;&gt;Emergency vehicle detection=False&lt;/font&gt;&lt;/div&gt;" style="edgeLabel;html=1;align=center;verticalAlign=middle;resizable=0;points=[];" vertex="1" connectable="0" parent="nNsLKt_gQvv5KG4dFncz-97">
          <mxGeometry x="0.863" y="2" relative="1" as="geometry">
            <mxPoint as="offset" />
          </mxGeometry>
        </mxCell>
        <mxCell id="nNsLKt_gQvv5KG4dFncz-107" value="&#xa;&lt;font style=&quot;forced-color-adjust: none; color: rgb(0, 0, 0); font-style: normal; font-variant-ligatures: normal; font-variant-caps: normal; font-weight: 400; letter-spacing: normal; orphans: 2; text-align: center; text-indent: 0px; text-transform: none; widows: 2; word-spacing: 0px; -webkit-text-stroke-width: 0px; white-space: nowrap; text-decoration-thickness: initial; text-decoration-style: initial; text-decoration-color: initial; font-size: 15px;&quot; face=&quot;Times New Roman&quot;&gt;Stay in yellow until&lt;/font&gt;&lt;div style=&quot;forced-color-adjust: none; color: rgb(0, 0, 0); font-family: Helvetica; font-size: 11px; font-style: normal; font-variant-ligatures: normal; font-variant-caps: normal; font-weight: 400; letter-spacing: normal; orphans: 2; text-align: center; text-indent: 0px; text-transform: none; widows: 2; word-spacing: 0px; -webkit-text-stroke-width: 0px; white-space: nowrap; text-decoration-thickness: initial; text-decoration-style: initial; text-decoration-color: initial;&quot;&gt;&lt;font style=&quot;forced-color-adjust: none; font-size: 15px;&quot; face=&quot;Times New Roman&quot;&gt;Emergency vehicle detection=False&lt;/font&gt;&lt;/div&gt;&#xa;&#xa;" style="endArrow=classic;html=1;rounded=0;fontFamily=Times New Roman;fontSize=15;strokeWidth=3;entryX=0;entryY=0.25;entryDx=0;entryDy=0;" edge="1" parent="1" source="nNsLKt_gQvv5KG4dFncz-57" target="nNsLKt_gQvv5KG4dFncz-57">
          <mxGeometry x="0.4184" y="-50" width="50" height="50" relative="1" as="geometry">
            <mxPoint x="2682.49" y="-310" as="sourcePoint" />
            <mxPoint x="2622.49" y="-294" as="targetPoint" />
            <Array as="points">
              <mxPoint x="2682" y="-420" />
              <mxPoint x="2650" y="-420" />
              <mxPoint x="2602" y="-420" />
              <mxPoint x="2600" y="-254" />
            </Array>
            <mxPoint as="offset" />
          </mxGeometry>
        </mxCell>
        <mxCell id="nNsLKt_gQvv5KG4dFncz-108" value="Emergency vehicle detection=TRUE" style="edgeLabel;html=1;align=center;verticalAlign=middle;resizable=0;points=[];fontFamily=Times New Roman;fontSize=15;" vertex="1" connectable="0" parent="nNsLKt_gQvv5KG4dFncz-107">
          <mxGeometry x="-0.0021" y="-2" relative="1" as="geometry">
            <mxPoint x="99" y="22" as="offset" />
          </mxGeometry>
        </mxCell>
        <mxCell id="nNsLKt_gQvv5KG4dFncz-109" value="" style="endArrow=classic;html=1;rounded=0;exitX=1;exitY=0.5;exitDx=0;exitDy=0;entryX=0.5;entryY=1;entryDx=0;entryDy=0;fontFamily=Times New Roman;fontSize=13;strokeWidth=3;" edge="1" parent="1" source="nNsLKt_gQvv5KG4dFncz-56" target="nNsLKt_gQvv5KG4dFncz-56">
          <mxGeometry width="50" height="50" relative="1" as="geometry">
            <mxPoint x="2750" y="-580" as="sourcePoint" />
            <mxPoint x="2690" y="-550" as="targetPoint" />
            <Array as="points">
              <mxPoint x="2890" y="-600" />
              <mxPoint x="2890" y="-480" />
              <mxPoint x="2662" y="-480" />
            </Array>
          </mxGeometry>
        </mxCell>
        <mxCell id="nNsLKt_gQvv5KG4dFncz-110" value="Emergency vehicle detection=TRUE" style="edgeLabel;html=1;align=center;verticalAlign=middle;resizable=0;points=[];fontFamily=Times New Roman;fontSize=15;" vertex="1" connectable="0" parent="nNsLKt_gQvv5KG4dFncz-109">
          <mxGeometry x="-0.0021" y="-2" relative="1" as="geometry">
            <mxPoint x="30" y="-59" as="offset" />
          </mxGeometry>
        </mxCell>
        <mxCell id="nNsLKt_gQvv5KG4dFncz-111" value="&lt;font style=&quot;font-size: 15px;&quot; face=&quot;Times New Roman&quot;&gt;Stay in yellow until&lt;/font&gt;&lt;div&gt;&lt;font style=&quot;font-size: 15px;&quot; face=&quot;Times New Roman&quot;&gt;Emergency vehicle detection=False&lt;/font&gt;&lt;/div&gt;" style="edgeLabel;html=1;align=center;verticalAlign=middle;resizable=0;points=[];" vertex="1" connectable="0" parent="nNsLKt_gQvv5KG4dFncz-109">
          <mxGeometry x="0.863" y="2" relative="1" as="geometry">
            <mxPoint as="offset" />
          </mxGeometry>
        </mxCell>
        <mxCell id="nNsLKt_gQvv5KG4dFncz-112" value="Traffic light" style="swimlane;fontFamily=Times New Roman;fontSize=15;strokeWidth=3;" vertex="1" parent="1">
          <mxGeometry x="300" y="-1010" width="2800" height="1170" as="geometry" />
        </mxCell>
        <mxCell id="nNsLKt_gQvv5KG4dFncz-114" value="&lt;br style=&quot;forced-color-adjust: none; color: rgb(0, 0, 0); font-family: &amp;quot;Times New Roman&amp;quot;; font-size: 13px; font-style: normal; font-variant-ligatures: normal; font-variant-caps: normal; font-weight: 400; letter-spacing: normal; orphans: 2; text-align: center; text-indent: 0px; text-transform: none; widows: 2; word-spacing: 0px; -webkit-text-stroke-width: 0px; white-space: nowrap; text-decoration-thickness: initial; text-decoration-style: initial; text-decoration-color: initial;&quot;&gt;&lt;span style=&quot;forced-color-adjust: none; color: rgb(0, 0, 0); font-family: &amp;quot;Times New Roman&amp;quot;; font-style: normal; font-variant-ligatures: normal; font-variant-caps: normal; font-weight: 400; letter-spacing: normal; orphans: 2; text-align: center; text-indent: 0px; text-transform: none; widows: 2; word-spacing: 0px; -webkit-text-stroke-width: 0px; white-space: nowrap; background-color: rgb(255, 255, 255); text-decoration-thickness: initial; text-decoration-style: initial; text-decoration-color: initial; font-size: 15px; float: none; display: inline !important;&quot;&gt;S&amp;amp;N PTL state=Don&#39;t Walk&lt;/span&gt;" style="text;whiteSpace=wrap;html=1;" vertex="1" parent="nNsLKt_gQvv5KG4dFncz-112">
          <mxGeometry x="30" y="600" width="210" height="60" as="geometry" />
        </mxCell>
        <mxCell id="9r5rnabgURO82VlBlhFW-1" value="E&amp;W PTL" style="swimlane;strokeWidth=3;fontFamily=Times New Roman;fontSize=15;" vertex="1" parent="1">
          <mxGeometry x="300" y="260" width="1320" height="200" as="geometry" />
        </mxCell>
        <mxCell id="9r5rnabgURO82VlBlhFW-7" value="Don&#39;t Walk" style="rounded=1;whiteSpace=wrap;html=1;strokeWidth=3;" vertex="1" parent="9r5rnabgURO82VlBlhFW-1">
          <mxGeometry x="65" y="80" width="120" height="60" as="geometry" />
        </mxCell>
        <mxCell id="9r5rnabgURO82VlBlhFW-8" value="Walk" style="rounded=1;whiteSpace=wrap;html=1;strokeWidth=3;" vertex="1" parent="9r5rnabgURO82VlBlhFW-1">
          <mxGeometry x="820" y="80" width="120" height="60" as="geometry" />
        </mxCell>
        <mxCell id="9r5rnabgURO82VlBlhFW-9" value="" style="endArrow=classic;html=1;rounded=0;exitX=1;exitY=0.5;exitDx=0;exitDy=0;entryX=0;entryY=0.5;entryDx=0;entryDy=0;strokeWidth=3;" edge="1" parent="9r5rnabgURO82VlBlhFW-1" source="9r5rnabgURO82VlBlhFW-7" target="9r5rnabgURO82VlBlhFW-8">
          <mxGeometry width="50" height="50" relative="1" as="geometry">
            <mxPoint x="550" y="130" as="sourcePoint" />
            <mxPoint x="600" y="80" as="targetPoint" />
          </mxGeometry>
        </mxCell>
        <mxCell id="9r5rnabgURO82VlBlhFW-10" value="Emergency vehicle detection=FALSE&lt;div&gt;N&amp;amp;S State is RED&lt;/div&gt;" style="edgeLabel;html=1;align=center;verticalAlign=middle;resizable=0;points=[];" vertex="1" connectable="0" parent="9r5rnabgURO82VlBlhFW-9">
          <mxGeometry x="-0.0241" y="3" relative="1" as="geometry">
            <mxPoint as="offset" />
          </mxGeometry>
        </mxCell>
        <mxCell id="9r5rnabgURO82VlBlhFW-11" value="t=6sec" style="edgeLabel;html=1;align=center;verticalAlign=middle;resizable=0;points=[];" vertex="1" connectable="0" parent="9r5rnabgURO82VlBlhFW-9">
          <mxGeometry x="0.6118" y="1" relative="1" as="geometry">
            <mxPoint as="offset" />
          </mxGeometry>
        </mxCell>
        <mxCell id="9r5rnabgURO82VlBlhFW-5" value="" style="endArrow=classic;html=1;rounded=0;exitX=0.5;exitY=1;exitDx=0;exitDy=0;fontSize=15;fontFamily=Times New Roman;strokeWidth=3;" edge="1" parent="1" source="nNsLKt_gQvv5KG4dFncz-112" target="9r5rnabgURO82VlBlhFW-1">
          <mxGeometry width="50" height="50" relative="1" as="geometry">
            <mxPoint x="2140" y="370" as="sourcePoint" />
            <mxPoint x="2190" y="320" as="targetPoint" />
          </mxGeometry>
        </mxCell>
        <mxCell id="9r5rnabgURO82VlBlhFW-6" value="&lt;font style=&quot;font-size: 15px;&quot; face=&quot;Times New Roman&quot;&gt;E&amp;amp;W PedestrianRequest=True&lt;/font&gt;" style="edgeLabel;html=1;align=center;verticalAlign=middle;resizable=0;points=[];" vertex="1" connectable="0" parent="9r5rnabgURO82VlBlhFW-5">
          <mxGeometry x="-0.039" relative="1" as="geometry">
            <mxPoint as="offset" />
          </mxGeometry>
        </mxCell>
        <mxCell id="9r5rnabgURO82VlBlhFW-12" value="N&amp;S PTL" style="swimlane;strokeWidth=3;fontFamily=Times New Roman;fontSize=15;" vertex="1" parent="1">
          <mxGeometry x="1740" y="270" width="1320" height="200" as="geometry" />
        </mxCell>
        <mxCell id="9r5rnabgURO82VlBlhFW-13" value="Don&#39;t Walk" style="rounded=1;whiteSpace=wrap;html=1;strokeWidth=3;" vertex="1" parent="9r5rnabgURO82VlBlhFW-12">
          <mxGeometry x="65" y="80" width="120" height="60" as="geometry" />
        </mxCell>
        <mxCell id="9r5rnabgURO82VlBlhFW-14" value="Walk" style="rounded=1;whiteSpace=wrap;html=1;strokeWidth=3;" vertex="1" parent="9r5rnabgURO82VlBlhFW-12">
          <mxGeometry x="820" y="80" width="120" height="60" as="geometry" />
        </mxCell>
        <mxCell id="9r5rnabgURO82VlBlhFW-15" value="" style="endArrow=classic;html=1;rounded=0;exitX=1;exitY=0.5;exitDx=0;exitDy=0;entryX=0;entryY=0.5;entryDx=0;entryDy=0;strokeWidth=3;" edge="1" parent="9r5rnabgURO82VlBlhFW-12" source="9r5rnabgURO82VlBlhFW-13" target="9r5rnabgURO82VlBlhFW-14">
          <mxGeometry width="50" height="50" relative="1" as="geometry">
            <mxPoint x="550" y="130" as="sourcePoint" />
            <mxPoint x="600" y="80" as="targetPoint" />
          </mxGeometry>
        </mxCell>
        <mxCell id="9r5rnabgURO82VlBlhFW-16" value="Emergency vehicle detection=FALSE&lt;div&gt;E&amp;amp;W State is RED&lt;/div&gt;" style="edgeLabel;html=1;align=center;verticalAlign=middle;resizable=0;points=[];" vertex="1" connectable="0" parent="9r5rnabgURO82VlBlhFW-15">
          <mxGeometry x="-0.0241" y="3" relative="1" as="geometry">
            <mxPoint as="offset" />
          </mxGeometry>
        </mxCell>
        <mxCell id="9r5rnabgURO82VlBlhFW-17" value="t=6sec" style="edgeLabel;html=1;align=center;verticalAlign=middle;resizable=0;points=[];" vertex="1" connectable="0" parent="9r5rnabgURO82VlBlhFW-15">
          <mxGeometry x="0.6118" y="1" relative="1" as="geometry">
            <mxPoint as="offset" />
          </mxGeometry>
        </mxCell>
        <mxCell id="9r5rnabgURO82VlBlhFW-20" value="" style="endArrow=classic;html=1;rounded=0;exitX=0.5;exitY=1;exitDx=0;exitDy=0;fontSize=15;fontFamily=Times New Roman;strokeWidth=3;entryX=0.479;entryY=-0.003;entryDx=0;entryDy=0;entryPerimeter=0;" edge="1" parent="1" source="nNsLKt_gQvv5KG4dFncz-112" target="9r5rnabgURO82VlBlhFW-12">
          <mxGeometry width="50" height="50" relative="1" as="geometry">
            <mxPoint x="2000" y="210" as="sourcePoint" />
            <mxPoint x="1630" y="310" as="targetPoint" />
          </mxGeometry>
        </mxCell>
        <mxCell id="9r5rnabgURO82VlBlhFW-21" value="&lt;font style=&quot;font-size: 15px;&quot; face=&quot;Times New Roman&quot;&gt;N&amp;amp;S PedestrianRequest=True&lt;/font&gt;" style="edgeLabel;html=1;align=center;verticalAlign=middle;resizable=0;points=[];" vertex="1" connectable="0" parent="9r5rnabgURO82VlBlhFW-20">
          <mxGeometry x="-0.039" relative="1" as="geometry">
            <mxPoint as="offset" />
          </mxGeometry>
        </mxCell>
      </root>
    </mxGraphModel>
  </diagram>
  <diagram name="Copy of Page-1" id="V3jScxxNCGJwtRj7FIDC">
    <mxGraphModel grid="1" page="1" gridSize="10" guides="1" tooltips="1" connect="1" arrows="1" fold="1" pageScale="1" pageWidth="850" pageHeight="1100" math="0" shadow="0">
      <root>
        <mxCell id="JZfFtpfCq4WrQ9Wf5Jxe-0" />
        <mxCell id="JZfFtpfCq4WrQ9Wf5Jxe-1" parent="JZfFtpfCq4WrQ9Wf5Jxe-0" />
        <mxCell id="JZfFtpfCq4WrQ9Wf5Jxe-2" value="" style="edgeStyle=orthogonalEdgeStyle;rounded=0;orthogonalLoop=1;jettySize=auto;html=1;strokeWidth=3;fontFamily=Times New Roman;fontSize=15;" edge="1" parent="JZfFtpfCq4WrQ9Wf5Jxe-1" source="JZfFtpfCq4WrQ9Wf5Jxe-5" target="JZfFtpfCq4WrQ9Wf5Jxe-6">
          <mxGeometry relative="1" as="geometry" />
        </mxCell>
        <mxCell id="JZfFtpfCq4WrQ9Wf5Jxe-3" value="Emergency vehicle detection=FALSE" style="edgeLabel;html=1;align=center;verticalAlign=middle;resizable=0;points=[];fontFamily=Times New Roman;fontSize=15;" vertex="1" connectable="0" parent="JZfFtpfCq4WrQ9Wf5Jxe-2">
          <mxGeometry x="0.0033" y="-1" relative="1" as="geometry">
            <mxPoint as="offset" />
          </mxGeometry>
        </mxCell>
        <mxCell id="JZfFtpfCq4WrQ9Wf5Jxe-4" value="t=10sec" style="edgeLabel;html=1;align=center;verticalAlign=middle;resizable=0;points=[];fontFamily=Times New Roman;fontSize=15;" vertex="1" connectable="0" parent="JZfFtpfCq4WrQ9Wf5Jxe-2">
          <mxGeometry x="0.65" y="1" relative="1" as="geometry">
            <mxPoint as="offset" />
          </mxGeometry>
        </mxCell>
        <mxCell id="JZfFtpfCq4WrQ9Wf5Jxe-5" value="N&amp;amp;S Green" style="rounded=1;whiteSpace=wrap;html=1;strokeWidth=3;fontFamily=Times New Roman;fontSize=13;" vertex="1" parent="JZfFtpfCq4WrQ9Wf5Jxe-1">
          <mxGeometry x="560" y="-630" width="120" height="60" as="geometry" />
        </mxCell>
        <mxCell id="JZfFtpfCq4WrQ9Wf5Jxe-6" value="N&amp;amp;S Yellow" style="rounded=1;whiteSpace=wrap;html=1;strokeWidth=3;fontFamily=Times New Roman;fontSize=15;" vertex="1" parent="JZfFtpfCq4WrQ9Wf5Jxe-1">
          <mxGeometry x="1100" y="-630" width="120" height="60" as="geometry" />
        </mxCell>
        <mxCell id="JZfFtpfCq4WrQ9Wf5Jxe-7" value="" style="shape=waypoint;sketch=0;fillStyle=solid;size=6;pointerEvents=1;points=[];fillColor=none;resizable=0;rotatable=0;perimeter=centerPerimeter;snapToPoint=1;strokeWidth=12;" vertex="1" parent="JZfFtpfCq4WrQ9Wf5Jxe-1">
          <mxGeometry x="400" y="-460" width="20" height="20" as="geometry" />
        </mxCell>
        <mxCell id="JZfFtpfCq4WrQ9Wf5Jxe-8" value="" style="edgeStyle=orthogonalEdgeStyle;rounded=0;orthogonalLoop=1;jettySize=auto;html=1;strokeWidth=3;fontFamily=Times New Roman;fontSize=15;entryX=0;entryY=0.5;entryDx=0;entryDy=0;" edge="1" parent="JZfFtpfCq4WrQ9Wf5Jxe-1" source="JZfFtpfCq4WrQ9Wf5Jxe-11" target="JZfFtpfCq4WrQ9Wf5Jxe-22">
          <mxGeometry relative="1" as="geometry">
            <mxPoint x="1120" y="-239" as="targetPoint" />
          </mxGeometry>
        </mxCell>
        <mxCell id="JZfFtpfCq4WrQ9Wf5Jxe-9" value="Emergency vehicle detection=FALSE&lt;div&gt;&lt;br&gt;&lt;/div&gt;" style="edgeLabel;html=1;align=center;verticalAlign=middle;resizable=0;points=[];fontFamily=Times New Roman;fontSize=15;" vertex="1" connectable="0" parent="JZfFtpfCq4WrQ9Wf5Jxe-8">
          <mxGeometry y="2" relative="1" as="geometry">
            <mxPoint x="10" as="offset" />
          </mxGeometry>
        </mxCell>
        <mxCell id="JZfFtpfCq4WrQ9Wf5Jxe-10" value="t=12sec" style="edgeLabel;html=1;align=center;verticalAlign=middle;resizable=0;points=[];fontFamily=Times New Roman;fontSize=15;" vertex="1" connectable="0" parent="JZfFtpfCq4WrQ9Wf5Jxe-8">
          <mxGeometry x="0.6983" relative="1" as="geometry">
            <mxPoint as="offset" />
          </mxGeometry>
        </mxCell>
        <mxCell id="JZfFtpfCq4WrQ9Wf5Jxe-11" value="E&amp;amp;W RED" style="rounded=1;whiteSpace=wrap;html=1;strokeWidth=3;fontFamily=Times New Roman;fontSize=13;" vertex="1" parent="JZfFtpfCq4WrQ9Wf5Jxe-1">
          <mxGeometry x="570" y="-269" width="120" height="60" as="geometry" />
        </mxCell>
        <mxCell id="JZfFtpfCq4WrQ9Wf5Jxe-12" value="" style="endArrow=classic;html=1;rounded=0;exitX=0.479;exitY=1.047;exitDx=0;exitDy=0;exitPerimeter=0;entryX=0;entryY=0.5;entryDx=0;entryDy=0;strokeWidth=3;fontFamily=Times New Roman;fontSize=13;" edge="1" parent="JZfFtpfCq4WrQ9Wf5Jxe-1" source="JZfFtpfCq4WrQ9Wf5Jxe-7" target="JZfFtpfCq4WrQ9Wf5Jxe-11">
          <mxGeometry width="50" height="50" relative="1" as="geometry">
            <mxPoint x="410" y="-520" as="sourcePoint" />
            <mxPoint x="540" y="-440" as="targetPoint" />
            <Array as="points">
              <mxPoint x="410" y="-239" />
            </Array>
          </mxGeometry>
        </mxCell>
        <mxCell id="JZfFtpfCq4WrQ9Wf5Jxe-13" value="&#xa;&lt;span style=&quot;color: rgb(0, 0, 0); font-family: &amp;quot;Times New Roman&amp;quot;; font-size: 15px; font-style: normal; font-variant-ligatures: normal; font-variant-caps: normal; font-weight: 400; letter-spacing: normal; orphans: 2; text-align: center; text-indent: 0px; text-transform: none; widows: 2; word-spacing: 0px; -webkit-text-stroke-width: 0px; white-space: nowrap; background-color: rgb(255, 255, 255); text-decoration-thickness: initial; text-decoration-style: initial; text-decoration-color: initial; display: inline !important; float: none;&quot;&gt;E&amp;amp;W PTL state=Don&#39;t Walk&lt;/span&gt;&#xa;&#xa;" style="endArrow=classic;html=1;rounded=0;strokeWidth=3;entryX=0;entryY=0.5;entryDx=0;entryDy=0;fontFamily=Times New Roman;fontSize=13;exitX=0.95;exitY=0.224;exitDx=0;exitDy=0;exitPerimeter=0;" edge="1" parent="JZfFtpfCq4WrQ9Wf5Jxe-1" source="JZfFtpfCq4WrQ9Wf5Jxe-7" target="JZfFtpfCq4WrQ9Wf5Jxe-5">
          <mxGeometry x="-0.4" width="50" height="50" relative="1" as="geometry">
            <mxPoint x="410" y="-520" as="sourcePoint" />
            <mxPoint x="530" y="-600" as="targetPoint" />
            <Array as="points">
              <mxPoint x="410" y="-600" />
            </Array>
            <mxPoint y="1" as="offset" />
          </mxGeometry>
        </mxCell>
        <mxCell id="JZfFtpfCq4WrQ9Wf5Jxe-14" value="" style="endArrow=classic;html=1;rounded=0;exitX=0.5;exitY=1;exitDx=0;exitDy=0;entryX=0.5;entryY=1;entryDx=0;entryDy=0;fontFamily=Times New Roman;fontSize=13;strokeWidth=3;" edge="1" parent="JZfFtpfCq4WrQ9Wf5Jxe-1" source="JZfFtpfCq4WrQ9Wf5Jxe-11" target="JZfFtpfCq4WrQ9Wf5Jxe-22">
          <mxGeometry width="50" height="50" relative="1" as="geometry">
            <mxPoint x="760" y="-29" as="sourcePoint" />
            <mxPoint x="1180" y="-209" as="targetPoint" />
            <Array as="points">
              <mxPoint x="630" y="-79" />
              <mxPoint x="1630" y="-70" />
            </Array>
          </mxGeometry>
        </mxCell>
        <mxCell id="JZfFtpfCq4WrQ9Wf5Jxe-15" value="Emergency vehicle detection=TRUE" style="edgeLabel;html=1;align=center;verticalAlign=middle;resizable=0;points=[];fontFamily=Times New Roman;fontSize=15;" vertex="1" connectable="0" parent="JZfFtpfCq4WrQ9Wf5Jxe-14">
          <mxGeometry x="-0.0021" y="-2" relative="1" as="geometry">
            <mxPoint as="offset" />
          </mxGeometry>
        </mxCell>
        <mxCell id="JZfFtpfCq4WrQ9Wf5Jxe-16" value="" style="endArrow=classic;html=1;rounded=0;exitX=0.5;exitY=0;exitDx=0;exitDy=0;entryX=0.583;entryY=-0.067;entryDx=0;entryDy=0;entryPerimeter=0;fontFamily=Times New Roman;fontSize=13;strokeWidth=3;" edge="1" parent="JZfFtpfCq4WrQ9Wf5Jxe-1" source="JZfFtpfCq4WrQ9Wf5Jxe-5" target="JZfFtpfCq4WrQ9Wf5Jxe-6">
          <mxGeometry width="50" height="50" relative="1" as="geometry">
            <mxPoint x="640" y="-680" as="sourcePoint" />
            <mxPoint x="1350" y="-680" as="targetPoint" />
            <Array as="points">
              <mxPoint x="620" y="-770" />
              <mxPoint x="1170" y="-770" />
            </Array>
          </mxGeometry>
        </mxCell>
        <mxCell id="JZfFtpfCq4WrQ9Wf5Jxe-17" value="Emergency vehicle detection=TRUE" style="edgeLabel;html=1;align=center;verticalAlign=middle;resizable=0;points=[];fontFamily=Times New Roman;fontSize=15;" vertex="1" connectable="0" parent="JZfFtpfCq4WrQ9Wf5Jxe-16">
          <mxGeometry x="-0.0021" y="-2" relative="1" as="geometry">
            <mxPoint as="offset" />
          </mxGeometry>
        </mxCell>
        <mxCell id="JZfFtpfCq4WrQ9Wf5Jxe-18" value="N&amp;amp;S Red" style="rounded=1;whiteSpace=wrap;html=1;strokeWidth=3;fontFamily=Times New Roman;fontSize=15;" vertex="1" parent="JZfFtpfCq4WrQ9Wf5Jxe-1">
          <mxGeometry x="2080" y="-630" width="120" height="60" as="geometry" />
        </mxCell>
        <mxCell id="JZfFtpfCq4WrQ9Wf5Jxe-19" value="" style="edgeStyle=orthogonalEdgeStyle;rounded=0;orthogonalLoop=1;jettySize=auto;html=1;strokeWidth=3;fontFamily=Times New Roman;fontSize=15;entryX=0;entryY=0.5;entryDx=0;entryDy=0;" edge="1" parent="JZfFtpfCq4WrQ9Wf5Jxe-1" source="JZfFtpfCq4WrQ9Wf5Jxe-22" target="JZfFtpfCq4WrQ9Wf5Jxe-30">
          <mxGeometry relative="1" as="geometry">
            <mxPoint x="2120" y="-239" as="targetPoint" />
          </mxGeometry>
        </mxCell>
        <mxCell id="JZfFtpfCq4WrQ9Wf5Jxe-20" value="Emergency vehicle detection=FALSE" style="edgeLabel;html=1;align=center;verticalAlign=middle;resizable=0;points=[];fontFamily=Times New Roman;fontSize=15;" vertex="1" connectable="0" parent="JZfFtpfCq4WrQ9Wf5Jxe-19">
          <mxGeometry y="2" relative="1" as="geometry">
            <mxPoint as="offset" />
          </mxGeometry>
        </mxCell>
        <mxCell id="JZfFtpfCq4WrQ9Wf5Jxe-21" value="t=1sec" style="edgeLabel;html=1;align=center;verticalAlign=middle;resizable=0;points=[];fontFamily=Times New Roman;fontSize=15;" vertex="1" connectable="0" parent="JZfFtpfCq4WrQ9Wf5Jxe-19">
          <mxGeometry x="0.6983" relative="1" as="geometry">
            <mxPoint as="offset" />
          </mxGeometry>
        </mxCell>
        <mxCell id="JZfFtpfCq4WrQ9Wf5Jxe-22" value="E&amp;amp;W Yellow" style="rounded=1;whiteSpace=wrap;html=1;strokeWidth=3;fontFamily=Times New Roman;fontSize=15;" vertex="1" parent="JZfFtpfCq4WrQ9Wf5Jxe-1">
          <mxGeometry x="1570" y="-269" width="120" height="60" as="geometry" />
        </mxCell>
        <mxCell id="JZfFtpfCq4WrQ9Wf5Jxe-23" value="&#xa;&lt;font style=&quot;forced-color-adjust: none; color: rgb(0, 0, 0); font-style: normal; font-variant-ligatures: normal; font-variant-caps: normal; font-weight: 400; letter-spacing: normal; orphans: 2; text-align: center; text-indent: 0px; text-transform: none; widows: 2; word-spacing: 0px; -webkit-text-stroke-width: 0px; white-space: nowrap; text-decoration-thickness: initial; text-decoration-style: initial; text-decoration-color: initial; font-size: 15px;&quot; face=&quot;Times New Roman&quot;&gt;Stay in yellow until&lt;/font&gt;&lt;div style=&quot;forced-color-adjust: none; color: rgb(0, 0, 0); font-family: Helvetica; font-size: 11px; font-style: normal; font-variant-ligatures: normal; font-variant-caps: normal; font-weight: 400; letter-spacing: normal; orphans: 2; text-align: center; text-indent: 0px; text-transform: none; widows: 2; word-spacing: 0px; -webkit-text-stroke-width: 0px; white-space: nowrap; text-decoration-thickness: initial; text-decoration-style: initial; text-decoration-color: initial;&quot;&gt;&lt;font style=&quot;forced-color-adjust: none; font-size: 15px;&quot; face=&quot;Times New Roman&quot;&gt;Emergency vehicle detection=False&lt;/font&gt;&lt;/div&gt;&#xa;&#xa;" style="endArrow=classic;html=1;rounded=0;fontFamily=Times New Roman;fontSize=15;strokeWidth=3;entryX=0;entryY=0.25;entryDx=0;entryDy=0;" edge="1" parent="JZfFtpfCq4WrQ9Wf5Jxe-1" target="JZfFtpfCq4WrQ9Wf5Jxe-22">
          <mxGeometry x="0.4184" y="-50" width="50" height="50" relative="1" as="geometry">
            <mxPoint x="1630" y="-270" as="sourcePoint" />
            <mxPoint x="1540" y="-250" as="targetPoint" />
            <Array as="points">
              <mxPoint x="1630" y="-520" />
              <mxPoint x="1550" y="-520" />
              <mxPoint x="1550" y="-250" />
            </Array>
            <mxPoint as="offset" />
          </mxGeometry>
        </mxCell>
        <mxCell id="JZfFtpfCq4WrQ9Wf5Jxe-24" value="Emergency vehicle detection=TRUE" style="edgeLabel;html=1;align=center;verticalAlign=middle;resizable=0;points=[];fontFamily=Times New Roman;fontSize=15;" vertex="1" connectable="0" parent="JZfFtpfCq4WrQ9Wf5Jxe-23">
          <mxGeometry x="-0.0021" y="-2" relative="1" as="geometry">
            <mxPoint x="99" y="52" as="offset" />
          </mxGeometry>
        </mxCell>
        <mxCell id="JZfFtpfCq4WrQ9Wf5Jxe-25" value="" style="endArrow=classic;html=1;rounded=0;exitX=0.5;exitY=0;exitDx=0;exitDy=0;entryX=0.629;entryY=-0.017;entryDx=0;entryDy=0;entryPerimeter=0;fontFamily=Times New Roman;fontSize=15;strokeWidth=3;" edge="1" parent="JZfFtpfCq4WrQ9Wf5Jxe-1" source="JZfFtpfCq4WrQ9Wf5Jxe-18" target="JZfFtpfCq4WrQ9Wf5Jxe-33">
          <mxGeometry width="50" height="50" relative="1" as="geometry">
            <mxPoint x="1600" y="-680" as="sourcePoint" />
            <mxPoint x="2310" y="-680" as="targetPoint" />
            <Array as="points">
              <mxPoint x="2140" y="-770" />
              <mxPoint x="2680" y="-770" />
            </Array>
          </mxGeometry>
        </mxCell>
        <mxCell id="JZfFtpfCq4WrQ9Wf5Jxe-26" value="Emergency vehicle detection=TRUE" style="edgeLabel;html=1;align=center;verticalAlign=middle;resizable=0;points=[];fontFamily=Times New Roman;fontSize=15;" vertex="1" connectable="0" parent="JZfFtpfCq4WrQ9Wf5Jxe-25">
          <mxGeometry x="-0.0021" y="-2" relative="1" as="geometry">
            <mxPoint as="offset" />
          </mxGeometry>
        </mxCell>
        <mxCell id="JZfFtpfCq4WrQ9Wf5Jxe-27" value="" style="endArrow=classic;html=1;rounded=0;exitX=1;exitY=0.5;exitDx=0;exitDy=0;entryX=0;entryY=0.5;entryDx=0;entryDy=0;fontFamily=Times New Roman;fontSize=15;strokeWidth=3;" edge="1" parent="JZfFtpfCq4WrQ9Wf5Jxe-1" source="JZfFtpfCq4WrQ9Wf5Jxe-6" target="JZfFtpfCq4WrQ9Wf5Jxe-18">
          <mxGeometry width="50" height="50" relative="1" as="geometry">
            <mxPoint x="750" y="-370" as="sourcePoint" />
            <mxPoint x="800" y="-420" as="targetPoint" />
          </mxGeometry>
        </mxCell>
        <mxCell id="JZfFtpfCq4WrQ9Wf5Jxe-28" value="Emergency vehicle detection=FALSE" style="edgeLabel;html=1;align=center;verticalAlign=middle;resizable=0;points=[];fontSize=15;fontFamily=Times New Roman;" vertex="1" connectable="0" parent="JZfFtpfCq4WrQ9Wf5Jxe-27">
          <mxGeometry x="-0.2176" y="-2" relative="1" as="geometry">
            <mxPoint as="offset" />
          </mxGeometry>
        </mxCell>
        <mxCell id="JZfFtpfCq4WrQ9Wf5Jxe-29" value="t=3sec" style="edgeLabel;html=1;align=center;verticalAlign=middle;resizable=0;points=[];fontSize=15;fontFamily=Times New Roman;" vertex="1" connectable="0" parent="JZfFtpfCq4WrQ9Wf5Jxe-27">
          <mxGeometry x="0.6235" relative="1" as="geometry">
            <mxPoint as="offset" />
          </mxGeometry>
        </mxCell>
        <mxCell id="JZfFtpfCq4WrQ9Wf5Jxe-30" value="E&amp;amp;W Green" style="rounded=1;whiteSpace=wrap;html=1;strokeWidth=3;fontFamily=Times New Roman;fontSize=15;" vertex="1" parent="JZfFtpfCq4WrQ9Wf5Jxe-1">
          <mxGeometry x="2080" y="-269" width="120" height="60" as="geometry" />
        </mxCell>
        <mxCell id="JZfFtpfCq4WrQ9Wf5Jxe-31" value="" style="endArrow=classic;html=1;rounded=0;exitX=0.5;exitY=1;exitDx=0;exitDy=0;entryX=0.5;entryY=1;entryDx=0;entryDy=0;fontFamily=Times New Roman;fontSize=15;strokeWidth=3;" edge="1" parent="JZfFtpfCq4WrQ9Wf5Jxe-1" source="JZfFtpfCq4WrQ9Wf5Jxe-30" target="JZfFtpfCq4WrQ9Wf5Jxe-34">
          <mxGeometry width="50" height="50" relative="1" as="geometry">
            <mxPoint x="1880" y="-119" as="sourcePoint" />
            <mxPoint x="871" y="-122" as="targetPoint" />
            <Array as="points">
              <mxPoint x="2140" y="-69" />
              <mxPoint x="2682" y="-79" />
            </Array>
          </mxGeometry>
        </mxCell>
        <mxCell id="JZfFtpfCq4WrQ9Wf5Jxe-32" value="Emergency vehicle detection=TRUE" style="edgeLabel;html=1;align=center;verticalAlign=middle;resizable=0;points=[];fontFamily=Times New Roman;fontSize=15;" vertex="1" connectable="0" parent="JZfFtpfCq4WrQ9Wf5Jxe-31">
          <mxGeometry x="-0.0021" y="-2" relative="1" as="geometry">
            <mxPoint as="offset" />
          </mxGeometry>
        </mxCell>
        <mxCell id="JZfFtpfCq4WrQ9Wf5Jxe-33" value="N&amp;amp;S Yellow" style="rounded=1;whiteSpace=wrap;html=1;strokeWidth=3;fontFamily=Times New Roman;fontSize=15;" vertex="1" parent="JZfFtpfCq4WrQ9Wf5Jxe-1">
          <mxGeometry x="2602.49" y="-630" width="120" height="60" as="geometry" />
        </mxCell>
        <mxCell id="JZfFtpfCq4WrQ9Wf5Jxe-34" value="E&amp;amp;W Yellow" style="rounded=1;whiteSpace=wrap;html=1;strokeWidth=3;fontFamily=Times New Roman;fontSize=15;" vertex="1" parent="JZfFtpfCq4WrQ9Wf5Jxe-1">
          <mxGeometry x="2622.49" y="-269" width="120" height="60" as="geometry" />
        </mxCell>
        <mxCell id="JZfFtpfCq4WrQ9Wf5Jxe-35" value="" style="edgeStyle=orthogonalEdgeStyle;rounded=0;orthogonalLoop=1;jettySize=auto;html=1;strokeWidth=3;fontFamily=Times New Roman;fontSize=15;entryX=0;entryY=0.5;entryDx=0;entryDy=0;" edge="1" parent="JZfFtpfCq4WrQ9Wf5Jxe-1" target="JZfFtpfCq4WrQ9Wf5Jxe-33">
          <mxGeometry relative="1" as="geometry">
            <mxPoint x="2200" y="-600.5" as="sourcePoint" />
            <mxPoint x="2620" y="-600.5" as="targetPoint" />
          </mxGeometry>
        </mxCell>
        <mxCell id="JZfFtpfCq4WrQ9Wf5Jxe-36" value="Emergency vehicle detection=FALSE" style="edgeLabel;html=1;align=center;verticalAlign=middle;resizable=0;points=[];fontFamily=Times New Roman;fontSize=15;" vertex="1" connectable="0" parent="JZfFtpfCq4WrQ9Wf5Jxe-35">
          <mxGeometry x="0.0033" y="-1" relative="1" as="geometry">
            <mxPoint as="offset" />
          </mxGeometry>
        </mxCell>
        <mxCell id="JZfFtpfCq4WrQ9Wf5Jxe-37" value="t=11sec" style="edgeLabel;html=1;align=center;verticalAlign=middle;resizable=0;points=[];fontFamily=Times New Roman;fontSize=15;" vertex="1" connectable="0" parent="JZfFtpfCq4WrQ9Wf5Jxe-35">
          <mxGeometry x="0.65" y="1" relative="1" as="geometry">
            <mxPoint as="offset" />
          </mxGeometry>
        </mxCell>
        <mxCell id="JZfFtpfCq4WrQ9Wf5Jxe-38" value="" style="edgeStyle=orthogonalEdgeStyle;rounded=0;orthogonalLoop=1;jettySize=auto;html=1;strokeWidth=3;fontFamily=Times New Roman;fontSize=15;entryX=0;entryY=0.5;entryDx=0;entryDy=0;" edge="1" parent="JZfFtpfCq4WrQ9Wf5Jxe-1" target="JZfFtpfCq4WrQ9Wf5Jxe-34">
          <mxGeometry relative="1" as="geometry">
            <mxPoint x="2200" y="-239" as="sourcePoint" />
            <mxPoint x="2602" y="-238.5" as="targetPoint" />
          </mxGeometry>
        </mxCell>
        <mxCell id="JZfFtpfCq4WrQ9Wf5Jxe-39" value="Emergency vehicle detection=FALSE" style="edgeLabel;html=1;align=center;verticalAlign=middle;resizable=0;points=[];fontFamily=Times New Roman;fontSize=15;" vertex="1" connectable="0" parent="JZfFtpfCq4WrQ9Wf5Jxe-38">
          <mxGeometry x="0.0033" y="-1" relative="1" as="geometry">
            <mxPoint as="offset" />
          </mxGeometry>
        </mxCell>
        <mxCell id="JZfFtpfCq4WrQ9Wf5Jxe-40" value="t=10sec" style="edgeLabel;html=1;align=center;verticalAlign=middle;resizable=0;points=[];fontFamily=Times New Roman;fontSize=15;" vertex="1" connectable="0" parent="JZfFtpfCq4WrQ9Wf5Jxe-38">
          <mxGeometry x="0.65" y="1" relative="1" as="geometry">
            <mxPoint as="offset" />
          </mxGeometry>
        </mxCell>
        <mxCell id="JZfFtpfCq4WrQ9Wf5Jxe-41" value="" style="endArrow=classic;html=1;rounded=0;exitX=1;exitY=0.5;exitDx=0;exitDy=0;fontFamily=Times New Roman;fontSize=15;strokeWidth=3;entryX=0.5;entryY=0;entryDx=0;entryDy=0;" edge="1" parent="JZfFtpfCq4WrQ9Wf5Jxe-1" source="JZfFtpfCq4WrQ9Wf5Jxe-33" target="JZfFtpfCq4WrQ9Wf5Jxe-5">
          <mxGeometry width="50" height="50" relative="1" as="geometry">
            <mxPoint x="2740" y="-600.5899999999999" as="sourcePoint" />
            <mxPoint x="1400" y="-830" as="targetPoint" />
            <Array as="points">
              <mxPoint x="2810" y="-601" />
              <mxPoint x="2810" y="-810" />
              <mxPoint x="620" y="-820" />
            </Array>
          </mxGeometry>
        </mxCell>
        <mxCell id="JZfFtpfCq4WrQ9Wf5Jxe-42" value="Emergency vehicle detection=FALSE" style="edgeLabel;html=1;align=center;verticalAlign=middle;resizable=0;points=[];fontSize=15;fontFamily=Times New Roman;" vertex="1" connectable="0" parent="JZfFtpfCq4WrQ9Wf5Jxe-41">
          <mxGeometry x="-0.3273" y="-1" relative="1" as="geometry">
            <mxPoint x="-407" y="-6" as="offset" />
          </mxGeometry>
        </mxCell>
        <mxCell id="JZfFtpfCq4WrQ9Wf5Jxe-43" value="t=2sec" style="edgeLabel;html=1;align=center;verticalAlign=middle;resizable=0;points=[];fontSize=15;fontFamily=Times New Roman;" vertex="1" connectable="0" parent="JZfFtpfCq4WrQ9Wf5Jxe-41">
          <mxGeometry x="0.6545" y="-2" relative="1" as="geometry">
            <mxPoint as="offset" />
          </mxGeometry>
        </mxCell>
        <mxCell id="JZfFtpfCq4WrQ9Wf5Jxe-44" value="" style="endArrow=classic;html=1;rounded=0;exitX=1;exitY=0.5;exitDx=0;exitDy=0;fontFamily=Times New Roman;fontSize=13;strokeWidth=3;entryX=0.5;entryY=1;entryDx=0;entryDy=0;" edge="1" parent="JZfFtpfCq4WrQ9Wf5Jxe-1" source="JZfFtpfCq4WrQ9Wf5Jxe-34" target="JZfFtpfCq4WrQ9Wf5Jxe-11">
          <mxGeometry width="50" height="50" relative="1" as="geometry">
            <mxPoint x="2420" y="131" as="sourcePoint" />
            <mxPoint x="650" y="-169" as="targetPoint" />
            <Array as="points">
              <mxPoint x="2870" y="-239" />
              <mxPoint x="2870" y="101" />
              <mxPoint x="630" y="101" />
            </Array>
          </mxGeometry>
        </mxCell>
        <mxCell id="JZfFtpfCq4WrQ9Wf5Jxe-45" value="&lt;span&gt;Emergency vehicle detection=FALSE&lt;/span&gt;" style="edgeLabel;html=1;align=center;verticalAlign=middle;resizable=0;points=[];fontSize=15;fontFamily=Times New Roman;" vertex="1" connectable="0" parent="JZfFtpfCq4WrQ9Wf5Jxe-44">
          <mxGeometry x="-0.3273" y="-1" relative="1" as="geometry">
            <mxPoint x="-472" as="offset" />
          </mxGeometry>
        </mxCell>
        <mxCell id="JZfFtpfCq4WrQ9Wf5Jxe-46" value="t=2sec" style="edgeLabel;html=1;align=center;verticalAlign=middle;resizable=0;points=[];fontSize=15;fontFamily=Times New Roman;" vertex="1" connectable="0" parent="JZfFtpfCq4WrQ9Wf5Jxe-44">
          <mxGeometry x="0.6545" y="-2" relative="1" as="geometry">
            <mxPoint as="offset" />
          </mxGeometry>
        </mxCell>
        <mxCell id="JZfFtpfCq4WrQ9Wf5Jxe-47" value="" style="endArrow=classic;html=1;rounded=0;exitX=1;exitY=0.5;exitDx=0;exitDy=0;entryX=0.5;entryY=1;entryDx=0;entryDy=0;fontFamily=Times New Roman;fontSize=13;strokeWidth=3;" edge="1" parent="JZfFtpfCq4WrQ9Wf5Jxe-1" source="JZfFtpfCq4WrQ9Wf5Jxe-6" target="JZfFtpfCq4WrQ9Wf5Jxe-6">
          <mxGeometry width="50" height="50" relative="1" as="geometry">
            <mxPoint x="1430" y="-680" as="sourcePoint" />
            <mxPoint x="1980" y="-684" as="targetPoint" />
            <Array as="points">
              <mxPoint x="1360" y="-600" />
              <mxPoint x="1360" y="-490" />
              <mxPoint x="1160" y="-490" />
            </Array>
          </mxGeometry>
        </mxCell>
        <mxCell id="JZfFtpfCq4WrQ9Wf5Jxe-48" value="Emergency vehicle detection=TRUE" style="edgeLabel;html=1;align=center;verticalAlign=middle;resizable=0;points=[];fontFamily=Times New Roman;fontSize=15;" vertex="1" connectable="0" parent="JZfFtpfCq4WrQ9Wf5Jxe-47">
          <mxGeometry x="-0.0021" y="-2" relative="1" as="geometry">
            <mxPoint x="30" y="-59" as="offset" />
          </mxGeometry>
        </mxCell>
        <mxCell id="JZfFtpfCq4WrQ9Wf5Jxe-49" value="&lt;font style=&quot;font-size: 15px;&quot; face=&quot;Times New Roman&quot;&gt;Stay in yellow until&lt;/font&gt;&lt;div&gt;&lt;font style=&quot;font-size: 15px;&quot; face=&quot;Times New Roman&quot;&gt;Emergency vehicle detection=False&lt;/font&gt;&lt;/div&gt;" style="edgeLabel;html=1;align=center;verticalAlign=middle;resizable=0;points=[];" vertex="1" connectable="0" parent="JZfFtpfCq4WrQ9Wf5Jxe-47">
          <mxGeometry x="0.863" y="2" relative="1" as="geometry">
            <mxPoint as="offset" />
          </mxGeometry>
        </mxCell>
        <mxCell id="JZfFtpfCq4WrQ9Wf5Jxe-50" value="&#xa;&lt;font style=&quot;forced-color-adjust: none; color: rgb(0, 0, 0); font-style: normal; font-variant-ligatures: normal; font-variant-caps: normal; font-weight: 400; letter-spacing: normal; orphans: 2; text-align: center; text-indent: 0px; text-transform: none; widows: 2; word-spacing: 0px; -webkit-text-stroke-width: 0px; white-space: nowrap; text-decoration-thickness: initial; text-decoration-style: initial; text-decoration-color: initial; font-size: 15px;&quot; face=&quot;Times New Roman&quot;&gt;Stay in yellow until&lt;/font&gt;&lt;div style=&quot;forced-color-adjust: none; color: rgb(0, 0, 0); font-family: Helvetica; font-size: 11px; font-style: normal; font-variant-ligatures: normal; font-variant-caps: normal; font-weight: 400; letter-spacing: normal; orphans: 2; text-align: center; text-indent: 0px; text-transform: none; widows: 2; word-spacing: 0px; -webkit-text-stroke-width: 0px; white-space: nowrap; text-decoration-thickness: initial; text-decoration-style: initial; text-decoration-color: initial;&quot;&gt;&lt;font style=&quot;forced-color-adjust: none; font-size: 15px;&quot; face=&quot;Times New Roman&quot;&gt;Emergency vehicle detection=False&lt;/font&gt;&lt;/div&gt;&#xa;&#xa;" style="endArrow=classic;html=1;rounded=0;fontFamily=Times New Roman;fontSize=15;strokeWidth=3;entryX=0;entryY=0.25;entryDx=0;entryDy=0;" edge="1" parent="JZfFtpfCq4WrQ9Wf5Jxe-1" source="JZfFtpfCq4WrQ9Wf5Jxe-34" target="JZfFtpfCq4WrQ9Wf5Jxe-34">
          <mxGeometry x="0.4184" y="-50" width="50" height="50" relative="1" as="geometry">
            <mxPoint x="2682.49" y="-310" as="sourcePoint" />
            <mxPoint x="2622.49" y="-294" as="targetPoint" />
            <Array as="points">
              <mxPoint x="2682" y="-420" />
              <mxPoint x="2650" y="-420" />
              <mxPoint x="2602" y="-420" />
              <mxPoint x="2600" y="-254" />
            </Array>
            <mxPoint as="offset" />
          </mxGeometry>
        </mxCell>
        <mxCell id="JZfFtpfCq4WrQ9Wf5Jxe-51" value="Emergency vehicle detection=TRUE" style="edgeLabel;html=1;align=center;verticalAlign=middle;resizable=0;points=[];fontFamily=Times New Roman;fontSize=15;" vertex="1" connectable="0" parent="JZfFtpfCq4WrQ9Wf5Jxe-50">
          <mxGeometry x="-0.0021" y="-2" relative="1" as="geometry">
            <mxPoint x="99" y="22" as="offset" />
          </mxGeometry>
        </mxCell>
        <mxCell id="JZfFtpfCq4WrQ9Wf5Jxe-52" value="" style="endArrow=classic;html=1;rounded=0;exitX=1;exitY=0.5;exitDx=0;exitDy=0;entryX=0.5;entryY=1;entryDx=0;entryDy=0;fontFamily=Times New Roman;fontSize=13;strokeWidth=3;" edge="1" parent="JZfFtpfCq4WrQ9Wf5Jxe-1" source="JZfFtpfCq4WrQ9Wf5Jxe-33" target="JZfFtpfCq4WrQ9Wf5Jxe-33">
          <mxGeometry width="50" height="50" relative="1" as="geometry">
            <mxPoint x="2750" y="-580" as="sourcePoint" />
            <mxPoint x="2690" y="-550" as="targetPoint" />
            <Array as="points">
              <mxPoint x="2890" y="-600" />
              <mxPoint x="2890" y="-480" />
              <mxPoint x="2662" y="-480" />
            </Array>
          </mxGeometry>
        </mxCell>
        <mxCell id="JZfFtpfCq4WrQ9Wf5Jxe-53" value="Emergency vehicle detection=TRUE" style="edgeLabel;html=1;align=center;verticalAlign=middle;resizable=0;points=[];fontFamily=Times New Roman;fontSize=15;" vertex="1" connectable="0" parent="JZfFtpfCq4WrQ9Wf5Jxe-52">
          <mxGeometry x="-0.0021" y="-2" relative="1" as="geometry">
            <mxPoint x="30" y="-59" as="offset" />
          </mxGeometry>
        </mxCell>
        <mxCell id="JZfFtpfCq4WrQ9Wf5Jxe-54" value="&lt;font style=&quot;font-size: 15px;&quot; face=&quot;Times New Roman&quot;&gt;Stay in yellow until&lt;/font&gt;&lt;div&gt;&lt;font style=&quot;font-size: 15px;&quot; face=&quot;Times New Roman&quot;&gt;Emergency vehicle detection=False&lt;/font&gt;&lt;/div&gt;" style="edgeLabel;html=1;align=center;verticalAlign=middle;resizable=0;points=[];" vertex="1" connectable="0" parent="JZfFtpfCq4WrQ9Wf5Jxe-52">
          <mxGeometry x="0.863" y="2" relative="1" as="geometry">
            <mxPoint as="offset" />
          </mxGeometry>
        </mxCell>
        <mxCell id="JZfFtpfCq4WrQ9Wf5Jxe-55" value="Traffic light" style="swimlane;fontFamily=Times New Roman;fontSize=15;" vertex="1" parent="JZfFtpfCq4WrQ9Wf5Jxe-1">
          <mxGeometry x="300" y="-1010" width="2800" height="1170" as="geometry" />
        </mxCell>
        <mxCell id="JZfFtpfCq4WrQ9Wf5Jxe-56" value="&lt;br style=&quot;forced-color-adjust: none; color: rgb(0, 0, 0); font-family: &amp;quot;Times New Roman&amp;quot;; font-size: 13px; font-style: normal; font-variant-ligatures: normal; font-variant-caps: normal; font-weight: 400; letter-spacing: normal; orphans: 2; text-align: center; text-indent: 0px; text-transform: none; widows: 2; word-spacing: 0px; -webkit-text-stroke-width: 0px; white-space: nowrap; text-decoration-thickness: initial; text-decoration-style: initial; text-decoration-color: initial;&quot;&gt;&lt;span style=&quot;forced-color-adjust: none; color: rgb(0, 0, 0); font-family: &amp;quot;Times New Roman&amp;quot;; font-style: normal; font-variant-ligatures: normal; font-variant-caps: normal; font-weight: 400; letter-spacing: normal; orphans: 2; text-align: center; text-indent: 0px; text-transform: none; widows: 2; word-spacing: 0px; -webkit-text-stroke-width: 0px; white-space: nowrap; background-color: rgb(255, 255, 255); text-decoration-thickness: initial; text-decoration-style: initial; text-decoration-color: initial; font-size: 15px; float: none; display: inline !important;&quot;&gt;S&amp;amp;N PTL state=Don&#39;t Walk&lt;/span&gt;" style="text;whiteSpace=wrap;html=1;" vertex="1" parent="JZfFtpfCq4WrQ9Wf5Jxe-55">
          <mxGeometry x="30" y="600" width="210" height="60" as="geometry" />
        </mxCell>
      </root>
    </mxGraphModel>
  </diagram>
</mxfile>
